<svg width="211" height="124" viewBox="0 0 211 124" fill="none" xmlns="http://www.w3.org/2000/svg">
<path d="M43.7735 30.8987L78.1182 113.047H68.2557L41.453 41.9215L43.7735 30.8987ZM18.8273 105.273C18.2858 106.82 18.2085 108.135 18.5952 109.218C18.982 110.301 19.6008 111.152 20.4517 111.771C21.3799 112.313 22.3081 112.583 23.2364 112.583H24.2806V113.744H0.95878V112.583C0.95878 112.583 1.15216 112.583 1.53893 112.583C1.84834 112.583 2.00304 112.583 2.00304 112.583C3.78216 112.583 5.59995 112.042 7.45641 110.959C9.39023 109.799 10.976 107.903 12.2136 105.273H18.8273ZM43.7735 30.8987L44.8178 39.0207L15.6945 113.395H8.73273L38.4362 42.8497C38.4362 42.8497 38.6296 42.3856 39.0163 41.4574C39.4805 40.4518 39.9833 39.2528 40.5247 37.8604C41.1436 36.4681 41.6463 35.1144 42.0331 33.7994C42.4972 32.4844 42.7293 31.5175 42.7293 30.8987H43.7735ZM60.1337 82.0676V85.5484H23.8165V82.0676H60.1337ZM65.355 105.273H74.8694C76.0297 107.903 77.5767 109.799 79.5105 110.959C81.4444 112.042 83.3008 112.583 85.0799 112.583C85.0799 112.583 85.2346 112.583 85.544 112.583C85.8535 112.583 86.0082 112.583 86.0082 112.583V113.744H59.9016V112.583H60.9459C62.4156 112.583 63.7306 111.964 64.8909 110.727C66.0511 109.412 66.2059 107.594 65.355 105.273ZM127.941 30.7827L195.354 102.721L196.398 115.368L128.985 43.5459L127.941 30.7827ZM128.173 105.505V113.744H118.543V112.583C118.543 112.583 118.891 112.583 119.587 112.583C120.283 112.583 120.67 112.583 120.747 112.583C122.681 112.583 124.344 111.887 125.736 110.495C127.129 109.102 127.825 107.439 127.825 105.505H128.173ZM133.162 105.505C133.162 107.439 133.858 109.102 135.251 110.495C136.643 111.887 138.306 112.583 140.24 112.583C140.317 112.583 140.704 112.583 141.4 112.583C142.096 112.583 142.445 112.583 142.445 112.583V113.744H132.814V105.505H133.162ZM127.941 30.7827L133.046 37.2803L133.162 113.744H127.825V45.2863C127.825 41.3413 127.632 37.9378 127.245 35.0758C126.935 32.2137 126.781 30.7827 126.781 30.7827H127.941ZM196.398 32.5231V100.516C196.398 102.991 196.475 105.389 196.63 107.71C196.785 109.953 196.94 111.81 197.094 113.279C197.326 114.672 197.442 115.368 197.442 115.368H196.398L191.177 109.218V32.5231H196.398ZM205.68 32.5231V33.6834C205.68 33.6834 205.332 33.6834 204.636 33.6834C203.94 33.6834 203.592 33.6834 203.592 33.6834C201.658 33.6834 199.995 34.3796 198.603 35.7719C197.21 37.0869 196.475 38.75 196.398 40.7612H196.05V32.5231H205.68ZM181.778 32.5231H191.409V40.7612H191.177C191.099 38.75 190.365 37.0869 188.972 35.7719C187.657 34.3796 185.994 33.6834 183.983 33.6834C183.983 33.6834 183.635 33.6834 182.939 33.6834C182.243 33.6834 181.856 33.6834 181.778 33.6834V32.5231Z" fill="white"/>
<path d="M97.9492 30.8987C100.579 30.8987 103.132 31.2468 105.607 31.943C108.082 32.6391 110.364 33.606 112.453 34.8437C114.541 36.004 116.282 37.435 117.674 39.1368L115.586 52.2481H114.425C114.425 48.5351 113.729 45.3637 112.337 42.7337C110.944 40.0263 109.011 37.9765 106.535 36.5841C104.137 35.1144 101.275 34.3796 97.9492 34.3796C93.5401 34.3796 89.8658 35.9266 86.9264 39.0207C84.0644 42.1149 82.6333 46.0212 82.6333 50.7397C82.6333 55.6129 84.2191 60.1381 87.3905 64.3151C90.562 68.4922 95.1258 73.2494 101.082 78.5867C102.784 80.0564 104.64 81.7582 106.651 83.692C108.74 85.5484 111.099 87.637 113.729 89.9575C116.437 92.2781 119.453 94.8308 122.779 97.6155C125.255 99.6266 127.769 101.754 130.321 103.997C132.951 106.24 135.62 108.174 138.327 109.799C141.112 111.423 143.974 112.351 146.914 112.583V113.744C145.444 113.744 143.317 113.705 140.532 113.628C137.825 113.55 134.808 113.009 131.482 112.003C128.155 110.998 124.829 109.141 121.503 106.434C118.564 104.036 115.856 101.831 113.381 99.82C110.983 97.7315 108.74 95.8364 106.651 94.1346C104.64 92.3555 102.745 90.6924 100.966 89.1453C99.1868 87.5209 97.4464 85.9352 95.7446 84.3881C91.2582 80.2111 87.4292 76.4595 84.2578 73.1333C81.1636 69.7298 78.7657 66.2876 77.0639 62.8067C75.4395 59.2485 74.6273 55.2262 74.6273 50.7397C74.6273 47.8776 75.1688 45.2476 76.2517 42.8497C77.3347 40.4518 78.8817 38.3632 80.8929 36.5841C82.9814 34.805 85.4567 33.4127 88.3188 32.4071C91.1808 31.4015 94.391 30.8987 97.9492 30.8987ZM129.973 75.5699C130.824 79.8243 131.056 83.8854 130.669 87.753C130.283 91.6206 129.316 95.2175 127.769 98.5437C126.299 101.793 124.249 104.655 121.619 107.13C119.067 109.605 116.011 111.539 112.453 112.931C108.895 114.246 104.911 114.904 100.502 114.904C96.0154 114.904 91.877 114.517 88.0867 113.744C84.3738 112.97 81.0863 111.848 78.2242 110.379C75.3622 108.832 72.9256 106.975 70.9144 104.809C68.9806 102.566 67.5109 100.052 66.5053 97.2674C65.4997 94.4053 64.9969 91.2339 64.9969 87.753C64.9969 85.5098 65.229 83.4599 65.6931 81.6034C66.2346 79.6696 66.9694 77.8905 67.8976 76.2661C68.8259 74.6417 69.9088 73.2107 71.1465 71.973C72.4615 70.658 73.8925 69.4591 75.4395 68.3761C76.9866 67.2932 78.6497 66.365 80.4288 65.5914L82.0532 68.1441C80.5061 69.3817 79.1911 70.7741 78.1082 72.3211C77.0253 73.7908 76.1357 75.3765 75.4395 77.0783C74.7434 78.7027 74.2406 80.4432 73.9312 82.2996C73.6217 84.0787 73.467 85.8965 73.467 87.753C73.467 91.2339 74.0472 94.444 75.2075 97.3834C76.4451 100.245 78.1856 102.721 80.4288 104.809C82.7494 106.898 85.5728 108.522 88.8989 109.683C92.3024 110.843 96.1701 111.423 100.502 111.423C104.447 111.423 107.928 110.649 110.944 109.102C114.039 107.478 116.591 105.389 118.602 102.837C120.691 100.207 122.238 97.3061 123.244 94.1346C124.249 90.9631 124.675 87.7917 124.52 84.6202C124.365 81.3714 123.592 78.3546 122.199 75.5699C121.426 74.0229 120.42 72.7466 119.183 71.741C118.022 70.7354 116.514 70.2326 114.657 70.2326H112.917V69.0723H136.007V70.2326H134.266C132.565 70.2326 131.327 70.7354 130.553 71.741C129.857 72.7466 129.664 74.0229 129.973 75.5699Z" fill="#FFD066"/>
</svg>
