<svg width="82" height="60" viewBox="0 0 82 60" fill="none" xmlns="http://www.w3.org/2000/svg">
<path d="M17.2142 11.0818L30.0318 41.7402H26.351L16.3481 15.1956L17.2142 11.0818ZM7.90406 38.8389C7.70198 39.4163 7.67311 39.907 7.81746 40.3112C7.9618 40.7154 8.19275 41.0329 8.5103 41.2639C8.85672 41.4659 9.20314 41.567 9.54957 41.567H9.93929V42H1.23544V41.567C1.23544 41.567 1.30761 41.567 1.45195 41.567C1.56742 41.567 1.62516 41.567 1.62516 41.567C2.28914 41.567 2.96755 41.3649 3.66039 40.9607C4.3821 40.5277 4.97391 39.8204 5.4358 38.8389H7.90406ZM17.2142 11.0818L17.6039 14.113L6.73489 41.8701H4.13672L15.2222 15.542C15.2222 15.542 15.2944 15.3688 15.4387 15.0224C15.612 14.6471 15.7996 14.1996 16.0017 13.68C16.2326 13.1604 16.4203 12.6552 16.5646 12.1644C16.7378 11.6736 16.8244 11.3128 16.8244 11.0818H17.2142ZM23.3198 30.1783V31.4774H9.76608V30.1783H23.3198ZM25.2685 38.8389H28.8193C29.2523 39.8204 29.8297 40.5277 30.5514 40.9607C31.2731 41.3649 31.966 41.567 32.6299 41.567C32.6299 41.567 32.6877 41.567 32.8031 41.567C32.9186 41.567 32.9764 41.567 32.9764 41.567V42H23.2332V41.567H23.623C24.1715 41.567 24.6622 41.336 25.0953 40.8741C25.5283 40.3834 25.586 39.705 25.2685 38.8389ZM48.6259 11.0385L73.7848 37.8862L74.1745 42.6062L49.0156 15.8018L48.6259 11.0385ZM48.7125 38.9255V42H45.1184V41.567C45.1184 41.567 45.2483 41.567 45.5081 41.567C45.7679 41.567 45.9123 41.567 45.9411 41.567C46.6628 41.567 47.2835 41.3072 47.8031 40.7875C48.3228 40.2679 48.5826 39.6472 48.5826 38.9255H48.7125ZM50.5745 38.9255C50.5745 39.6472 50.8343 40.2679 51.354 40.7875C51.8736 41.3072 52.4943 41.567 53.216 41.567C53.2449 41.567 53.3892 41.567 53.649 41.567C53.9088 41.567 54.0387 41.567 54.0387 41.567V42H50.4446V38.9255H50.5745ZM48.6259 11.0385L50.5312 13.4635L50.5745 42H48.5826V16.4514C48.5826 14.9791 48.5104 13.7089 48.3661 12.6407C48.2506 11.5726 48.1929 11.0385 48.1929 11.0385H48.6259ZM74.1745 11.6881V37.0635C74.1745 37.9873 74.2034 38.8822 74.2611 39.7483C74.3189 40.5854 74.3766 41.2783 74.4343 41.8268C74.5209 42.3464 74.5642 42.6062 74.5642 42.6062H74.1745L72.2259 40.3112V11.6881H74.1745ZM77.6387 11.6881V12.1211C77.6387 12.1211 77.5088 12.1211 77.249 12.1211C76.9892 12.1211 76.8593 12.1211 76.8593 12.1211C76.1376 12.1211 75.5169 12.3809 74.9973 12.9006C74.4776 13.3913 74.2034 14.012 74.1745 14.7626H74.0446V11.6881H77.6387ZM68.7184 11.6881H72.3125V14.7626H72.2259C72.197 14.012 71.9228 13.3913 71.4031 12.9006C70.9124 12.3809 70.2917 12.1211 69.5411 12.1211C69.5411 12.1211 69.4112 12.1211 69.1514 12.1211C68.8916 12.1211 68.7472 12.1211 68.7184 12.1211V11.6881Z" fill="white"/>
<path d="M37.4328 11.0818C38.4143 11.0818 39.367 11.2117 40.2908 11.4716C41.2146 11.7314 42.0662 12.0922 42.8457 12.5541C43.6251 12.9872 44.2746 13.5212 44.7943 14.1563L44.0148 19.0495H43.5818C43.5818 17.6639 43.322 16.4802 42.8024 15.4987C42.2827 14.4883 41.561 13.7233 40.6372 13.2037C39.7423 12.6552 38.6742 12.3809 37.4328 12.3809C35.7873 12.3809 34.4161 12.9583 33.3191 14.113C32.2509 15.2678 31.7169 16.7256 31.7169 18.4866C31.7169 20.3053 32.3087 21.9941 33.4923 23.553C34.6759 25.1119 36.3791 26.8873 38.602 28.8793C39.2371 29.4278 39.9299 30.0629 40.6805 30.7846C41.46 31.4774 42.3405 32.2569 43.322 33.1229C44.3324 33.989 45.4583 34.9417 46.6996 35.9809C47.6234 36.7315 48.5616 37.5254 49.5143 38.3626C50.4958 39.1998 51.4918 39.9215 52.5022 40.5277C53.5414 41.1339 54.6096 41.4804 55.7066 41.567V42C55.1581 42 54.3642 41.9856 53.3249 41.9567C52.3145 41.9278 51.1887 41.7257 49.9473 41.3505C48.706 40.9752 47.4646 40.2823 46.2233 39.2719C45.1263 38.377 44.1159 37.5543 43.1921 36.8037C42.2972 36.0242 41.46 35.3169 40.6805 34.6818C39.9299 34.0179 39.2227 33.3972 38.5587 32.8198C37.8947 32.2136 37.2452 31.6218 36.6101 31.0444C34.9357 29.4855 33.5067 28.0854 32.3231 26.844C31.1683 25.5738 30.2734 24.2892 29.6383 22.9901C29.0321 21.6621 28.729 20.161 28.729 18.4866C28.729 17.4185 28.931 16.4369 29.3352 15.542C29.7394 14.6471 30.3167 13.8676 31.0673 13.2037C31.8468 12.5397 32.7706 12.0201 33.8387 11.6448C34.9068 11.2695 36.1049 11.0818 37.4328 11.0818ZM49.3844 27.7534C49.7019 29.3412 49.7885 30.8568 49.6442 32.3002C49.4998 33.7436 49.139 35.086 48.5616 36.3273C48.0131 37.5398 47.2481 38.608 46.2666 39.5317C45.3139 40.4555 44.1736 41.1772 42.8457 41.6969C41.5177 42.1876 40.031 42.433 38.3855 42.433C36.7111 42.433 35.1666 42.2887 33.7521 42C32.3664 41.7113 31.1395 41.2927 30.0713 40.7442C29.0032 40.1669 28.0939 39.474 27.3433 38.6657C26.6216 37.8285 26.0731 36.8903 25.6978 35.851C25.3225 34.7829 25.1348 33.5993 25.1348 32.3002C25.1348 31.463 25.2214 30.698 25.3946 30.0051C25.5967 29.2834 25.871 28.6194 26.2174 28.0132C26.5638 27.407 26.968 26.8729 27.4299 26.411C27.9206 25.9202 28.4547 25.4728 29.0321 25.0686C29.6095 24.6645 30.2301 24.318 30.8941 24.0294L31.5003 24.982C30.923 25.4439 30.4322 25.9635 30.028 26.5409C29.6239 27.0894 29.2919 27.6812 29.0321 28.3163C28.7723 28.9226 28.5846 29.5721 28.4691 30.265C28.3537 30.9289 28.2959 31.6073 28.2959 32.3002C28.2959 33.5993 28.5124 34.7973 28.9455 35.8943C29.4074 36.9624 30.0569 37.8862 30.8941 38.6657C31.7602 39.4451 32.8139 40.0514 34.0552 40.4844C35.3254 40.9174 36.7688 41.1339 38.3855 41.1339C39.8578 41.1339 41.1569 40.8453 42.2827 40.2679C43.4375 39.6617 44.3901 38.8822 45.1407 37.9295C45.9202 36.948 46.4975 35.8654 46.8728 34.6818C47.2481 33.4982 47.4069 32.3146 47.3491 31.131C47.2914 29.9185 47.0027 28.7927 46.4831 27.7534C46.1944 27.176 45.8191 26.6997 45.3572 26.3244C44.9242 25.9491 44.3613 25.7615 43.6684 25.7615H43.0189V25.3284H51.6361V25.7615H50.9866C50.3515 25.7615 49.8896 25.9491 49.6009 26.3244C49.3411 26.6997 49.2689 27.176 49.3844 27.7534Z" fill="#FFD066"/>
<path d="M0.274377 56.6628L4.67231 47.1903H4.94295L9.34089 56.6628H9.02965L4.73997 47.4068H4.87529L0.585615 56.6628H0.274377ZM1.72231 53.8075L1.85763 53.5504H7.7441L7.87942 53.8075H1.72231ZM11.2689 56.6628V47.1903H14.8549C15.8563 47.1903 16.7314 47.3978 17.4801 47.8128C18.2289 48.2187 18.8108 48.7781 19.2258 49.4908C19.6408 50.2035 19.8483 51.0154 19.8483 51.9265C19.8483 52.8377 19.6408 53.6496 19.2258 54.3623C18.8108 55.075 18.2289 55.6389 17.4801 56.0538C16.7314 56.4598 15.8563 56.6628 14.8549 56.6628H11.2689ZM11.5395 56.4057H14.8278C15.7931 56.4057 16.6321 56.2117 17.3448 55.8238C18.0575 55.4359 18.6078 54.9081 18.9957 54.2405C19.3837 53.5639 19.5776 52.7926 19.5776 51.9265C19.5776 51.0605 19.3837 50.2937 18.9957 49.6261C18.6078 48.9495 18.0575 48.4172 17.3448 48.0293C16.6321 47.6414 15.7931 47.4474 14.8278 47.4474H11.5395V56.4057ZM24.7826 56.6628L20.52 47.1903H20.8312L24.9856 56.4463H24.8503L29.0046 47.1903H29.3159L25.0533 56.6628H24.7826ZM34.8423 56.7034C34.1476 56.7034 33.5026 56.5861 32.9072 56.3515C32.3208 56.108 31.8066 55.7697 31.3645 55.3366C30.9315 54.9036 30.5932 54.3984 30.3496 53.821C30.106 53.2437 29.9842 52.6122 29.9842 51.9265C29.9842 51.2409 30.106 50.6094 30.3496 50.032C30.5932 49.4547 30.9315 48.9495 31.3645 48.5165C31.8066 48.0834 32.3208 47.7496 32.9072 47.5151C33.5026 47.2715 34.1476 47.1497 34.8423 47.1497C35.5369 47.1497 36.1774 47.2715 36.7638 47.5151C37.3592 47.7496 37.8734 48.0834 38.3065 48.5165C38.7485 48.9495 39.0913 49.4547 39.3349 50.032C39.5785 50.6094 39.7003 51.2409 39.7003 51.9265C39.7003 52.6122 39.5785 53.2437 39.3349 53.821C39.0913 54.3984 38.7485 54.9036 38.3065 55.3366C37.8734 55.7697 37.3592 56.108 36.7638 56.3515C36.1774 56.5861 35.5369 56.7034 34.8423 56.7034ZM34.8423 56.4463C35.4918 56.4463 36.0962 56.3335 36.6556 56.108C37.2149 55.8824 37.702 55.5667 38.117 55.1607C38.532 54.7457 38.8523 54.2676 39.0778 53.7263C39.3124 53.176 39.4296 52.5761 39.4296 51.9265C39.4296 51.277 39.3124 50.6816 39.0778 50.1403C38.8523 49.59 38.532 49.1119 38.117 48.7059C37.702 48.2909 37.2149 47.9707 36.6556 47.7451C36.0962 47.5196 35.4918 47.4068 34.8423 47.4068C34.1927 47.4068 33.5883 47.5196 33.029 47.7451C32.4696 47.9707 31.9825 48.2909 31.5675 48.7059C31.1525 49.1119 30.8277 49.59 30.5932 50.1403C30.3676 50.6816 30.2549 51.277 30.2549 51.9265C30.2549 52.5761 30.3676 53.176 30.5932 53.7263C30.8277 54.2676 31.1525 54.7457 31.5675 55.1607C31.9825 55.5667 32.4696 55.8824 33.029 56.108C33.5883 56.3335 34.1927 56.4463 34.8423 56.4463ZM46.1543 56.7034C45.4596 56.7034 44.8146 56.5861 44.2192 56.3515C43.6328 56.108 43.1186 55.7697 42.6765 55.3366C42.2435 54.9036 41.9052 54.3984 41.6616 53.821C41.418 53.2437 41.2962 52.6122 41.2962 51.9265C41.2962 51.2409 41.418 50.6094 41.6616 50.032C41.9052 49.4547 42.2435 48.9495 42.6765 48.5165C43.1186 48.0834 43.6328 47.7496 44.2192 47.5151C44.8146 47.2715 45.4596 47.1497 46.1543 47.1497C46.7767 47.1497 47.3676 47.2489 47.927 47.4474C48.4863 47.6459 48.9689 47.9481 49.3749 48.3541L49.2125 48.5435C48.7795 48.1285 48.3059 47.8353 47.7916 47.6639C47.2774 47.4925 46.7316 47.4068 46.1543 47.4068C45.5047 47.4068 44.9003 47.5241 44.341 47.7587C43.7816 47.9842 43.2945 48.3044 42.8795 48.7194C42.4645 49.1254 42.1397 49.6035 41.9052 50.1538C41.6796 50.6951 41.5669 51.286 41.5669 51.9265C41.5669 52.5671 41.6796 53.1625 41.9052 53.7128C42.1397 54.2541 42.4645 54.7322 42.8795 55.1472C43.2945 55.5531 43.7816 55.8734 44.341 56.108C44.9003 56.3335 45.5047 56.4463 46.1543 56.4463C46.7316 56.4463 47.2774 56.3606 47.7916 56.1892C48.3059 56.0087 48.7795 55.711 49.2125 55.296L49.3749 55.4855C48.9689 55.8915 48.4863 56.1982 47.927 56.4057C47.3676 56.6041 46.7767 56.7034 46.1543 56.7034ZM49.9758 56.6628L54.3737 47.1903H54.6444L59.0423 56.6628H58.7311L54.4414 47.4068H54.5767L50.287 56.6628H49.9758ZM51.4237 53.8075L51.5591 53.5504H57.4455L57.5809 53.8075H51.4237ZM64.6948 56.7034C64.0002 56.7034 63.3551 56.5861 62.7597 56.3515C62.1733 56.108 61.6591 55.7697 61.2171 55.3366C60.784 54.9036 60.4457 54.3984 60.2022 53.821C59.9586 53.2437 59.8368 52.6122 59.8368 51.9265C59.8368 51.2409 59.9586 50.6094 60.2022 50.032C60.4457 49.4547 60.784 48.9495 61.2171 48.5165C61.6591 48.0834 62.1733 47.7496 62.7597 47.5151C63.3551 47.2715 64.0002 47.1497 64.6948 47.1497C65.3173 47.1497 65.9082 47.2489 66.4675 47.4474C67.0269 47.6459 67.5095 47.9481 67.9155 48.3541L67.7531 48.5435C67.3201 48.1285 66.8464 47.8353 66.3322 47.6639C65.818 47.4925 65.2722 47.4068 64.6948 47.4068C64.0453 47.4068 63.4409 47.5241 62.8815 47.7587C62.3222 47.9842 61.835 48.3044 61.4201 48.7194C61.0051 49.1254 60.6803 49.6035 60.4457 50.1538C60.2202 50.6951 60.1074 51.286 60.1074 51.9265C60.1074 52.5671 60.2202 53.1625 60.4457 53.7128C60.6803 54.2541 61.0051 54.7322 61.4201 55.1472C61.835 55.5531 62.3222 55.8734 62.8815 56.108C63.4409 56.3335 64.0453 56.4463 64.6948 56.4463C65.2722 56.4463 65.818 56.3606 66.3322 56.1892C66.8464 56.0087 67.3201 55.711 67.7531 55.296L67.9155 55.4855C67.5095 55.8915 67.0269 56.1982 66.4675 56.4057C65.9082 56.6041 65.3173 56.7034 64.6948 56.7034ZM70.4587 56.6628V47.1903H70.7293V56.6628H70.4587ZM72.6527 56.6628L77.0506 47.1903H77.3212L81.7192 56.6628H81.4079L77.1183 47.4068H77.2536L72.9639 56.6628H72.6527ZM74.1006 53.8075L74.2359 53.5504H80.1224L80.2577 53.8075H74.1006Z" fill="white"/>
</svg>
